<svg width="512" height="512" viewBox="0 0 512 512" fill="none" xmlns="http://www.w3.org/2000/svg">
<g clip-path="url(#clip0_5_3512)">
<g filter="url(#filter0_dd_5_3512)">
<g clip-path="url(#clip1_5_3512)">
<path fill-rule="evenodd" clip-rule="evenodd" d="M493.456 301.229L301.23 493.455C276.353 518.332 235.647 518.332 210.77 493.455L164.828 447.513L376.319 235.673C378.318 233.671 381.562 233.669 383.563 235.67L416.559 268.666C427.533 279.64 445.4 279.64 456.374 268.666L494.819 230.221C497.888 227.152 499.913 223.78 501.173 220.383C508.324 231.188 512 243.594 512 256C512 272.282 506.12 288.565 493.456 301.229ZM438.168 155.481C438.34 155.943 438.612 156.375 438.984 156.746L483.958 201.72C486.671 203.982 487.576 207.148 487.576 210.314C487.576 213.48 486.671 216.646 483.958 219.36L445.512 257.805C440.537 262.781 432.396 262.781 427.421 257.805L394.424 224.809C386.421 216.806 373.444 216.812 365.448 224.822L153.966 436.652L85.5596 368.245C84.8744 367.26 84.0927 366.322 83.2146 365.444L50.2049 332.434C47.9435 329.72 46.5866 326.554 46.5866 323.388C46.5866 320.222 47.4912 317.056 50.2049 314.342L88.6502 275.897C93.6255 270.922 101.767 270.922 106.742 275.897L139.752 308.907C147.75 316.905 160.717 316.905 168.715 308.907L314.346 163.275C319.342 158.279 319.342 150.179 314.346 145.183L275.901 106.738C273.64 104.024 272.283 100.858 272.283 97.6922C272.283 94.5261 273.187 91.3601 275.901 88.6463L314.346 50.201C319.322 45.2258 327.463 45.2258 332.438 50.201L365.567 83.3299C366.438 84.2009 367.368 84.9772 368.345 85.6587L438.168 155.481ZM315.05 32.3641L301.23 18.5437C276.353 -6.33267 235.647 -6.33267 210.77 18.5437L18.5442 210.77C6.33215 223.434 0 239.717 0 256C0 272.282 6.33215 288.565 18.5442 301.229L32.4019 315.087C33.579 311.1 35.7432 307.082 39.3438 303.481L77.789 265.036C88.7627 254.062 106.63 254.062 117.603 265.036L150.613 298.046C152.612 300.045 155.854 300.045 157.854 298.046L301.67 154.229L264.547 117.107L264.101 116.571C260.12 111.794 256.923 105.265 256.923 97.6922C256.923 91.3331 258.878 83.9475 265.04 77.7851L303.485 39.3399C306.83 35.9952 310.815 33.6699 315.05 32.3641Z" fill="#00ED7B"/>
<path d="M483.957 201.72L464.96 182.723L438.983 156.746C437.593 155.356 437.593 153.102 438.983 151.712L444.786 145.908C444.887 145.807 445.198 145.635 445.341 145.635V145.635C445.383 145.635 445.529 145.618 445.559 145.588L483.957 107.19C486.671 104.476 487.575 101.31 487.575 98.1439C487.575 94.9778 486.218 91.8118 483.957 89.098L445.512 50.6527C440.536 45.6775 432.395 45.6775 427.42 50.6527L407.519 70.5538L394.409 83.4484C386.393 91.3337 373.518 91.2805 365.566 83.3293L352.791 70.5538L332.438 50.2004C327.462 45.2252 319.321 45.2252 314.346 50.2004L275.9 88.6457C273.187 91.3595 272.282 94.5255 272.282 97.6916C272.282 100.858 273.639 104.024 275.9 106.738L314.346 145.183V145.183C319.342 150.179 319.342 158.279 314.346 163.275L168.714 308.906C160.716 316.904 147.749 316.904 139.751 308.906L127.999 297.154L106.741 275.897C101.766 270.921 93.6248 270.921 88.6495 275.897L50.2043 314.342C47.4905 317.056 46.5859 320.222 46.5859 323.388C46.5859 326.554 47.9428 329.72 50.2043 332.434L71.4623 353.692L83.2139 365.443C91.2119 373.441 91.2119 386.408 83.2139 394.406L76.8898 400.73L50.2043 427.416C47.4905 430.13 46.5859 433.296 46.5859 436.462C46.5859 439.628 47.9428 442.794 50.2043 445.508L88.6495 483.953C93.6248 488.928 101.766 488.928 106.741 483.953L133.427 457.268L365.447 224.822C373.443 216.811 386.42 216.805 394.424 224.808L408.423 238.808L427.42 257.805C432.395 262.78 440.536 262.78 445.512 257.805L483.957 219.359C486.671 216.646 487.575 213.48 487.575 210.314C487.575 207.147 486.671 203.981 483.957 201.72Z" fill="black"/>
<path d="M387.162 199.155L423.268 162.968C425.817 160.414 426.667 157.434 426.667 154.454C426.667 151.474 425.392 148.494 423.268 145.939L387.162 110.179C382.49 105.496 374.844 105.496 370.171 110.179L334.065 145.939C331.516 148.494 330.667 151.474 330.667 154.454C330.667 157.434 331.941 160.414 334.065 162.968L370.171 199.155C374.844 203.837 382.49 203.837 387.162 199.155Z" fill="white"/>
</g>
</g>
</g>
<defs>
<filter id="filter0_dd_5_3512" x="-3" y="-2" width="518" height="518" filterUnits="userSpaceOnUse" color-interpolation-filters="sRGB">
<feFlood flood-opacity="0" result="BackgroundImageFix"/>
<feColorMatrix in="SourceAlpha" type="matrix" values="0 0 0 0 0 0 0 0 0 0 0 0 0 0 0 0 0 0 127 0" result="hardAlpha"/>
<feOffset dy="1"/>
<feGaussianBlur stdDeviation="1"/>
<feColorMatrix type="matrix" values="0 0 0 0 1 0 0 0 0 1 0 0 0 0 1 0 0 0 0.06 0"/>
<feBlend mode="normal" in2="BackgroundImageFix" result="effect1_dropShadow_5_3512"/>
<feColorMatrix in="SourceAlpha" type="matrix" values="0 0 0 0 0 0 0 0 0 0 0 0 0 0 0 0 0 0 127 0" result="hardAlpha"/>
<feOffset dy="1"/>
<feGaussianBlur stdDeviation="1.5"/>
<feColorMatrix type="matrix" values="0 0 0 0 1 0 0 0 0 1 0 0 0 0 1 0 0 0 0.1 0"/>
<feBlend mode="normal" in2="effect1_dropShadow_5_3512" result="effect2_dropShadow_5_3512"/>
<feBlend mode="normal" in="SourceGraphic" in2="effect2_dropShadow_5_3512" result="shape"/>
</filter>
<clipPath id="clip0_5_3512">
<rect width="512" height="512" fill="white"/>
</clipPath>
<clipPath id="clip1_5_3512">
<rect width="512" height="512" fill="white"/>
</clipPath>
</defs>
</svg>
