<?xml version="1.0" encoding="UTF-8"?>
<!DOCTYPE svg PUBLIC "-//W3C//DTD SVG 1.1//EN" "http://www.w3.org/Graphics/SVG/1.1/DTD/svg11.dtd">
<svg xmlns="http://www.w3.org/2000/svg" version="1.1" width="307px" height="307px" style="shape-rendering:geometricPrecision; text-rendering:geometricPrecision; image-rendering:optimizeQuality; fill-rule:evenodd; clip-rule:evenodd" xmlns:xlink="http://www.w3.org/1999/xlink">
<g><path style="opacity:0.99" fill="#326565" d="M 137.5,-0.5 C 147.833,-0.5 158.167,-0.5 168.5,-0.5C 220.045,6.6856 259.545,32.3523 287,76.5C 296.902,94.8126 303.402,114.146 306.5,134.5C 306.5,147.167 306.5,159.833 306.5,172.5C 292.19,247.477 247.523,292.143 172.5,306.5C 159.833,306.5 147.167,306.5 134.5,306.5C 68.7562,295.364 25.5896,258.031 5,194.5C 2.82092,185.763 0.98759,177.097 -0.5,168.5C -0.5,158.167 -0.5,147.833 -0.5,137.5C 13.1778,59.1556 59.1778,13.1556 137.5,-0.5 Z"/></g>
<g><path style="opacity:1" fill="#fdfefe" d="M 175.5,126.5 C 171.5,126.5 167.5,126.5 163.5,126.5C 163.232,128.099 163.566,129.432 164.5,130.5C 165.419,140.854 166.586,151.187 168,161.5C 171.5,167.167 175,172.833 178.5,178.5C 175.577,183.591 172.077,188.258 168,192.5C 167.308,210.682 169.975,228.349 176,245.5C 178.867,251.925 182.7,257.591 187.5,262.5C 164.006,263.498 140.339,263.831 116.5,263.5C 126.42,253.31 132.253,240.976 134,226.5C 136.257,215.597 137.257,204.597 137,193.5C 133.305,188.638 129.805,183.638 126.5,178.5C 130,172.833 133.5,167.167 137,161.5C 138.121,151.485 139.288,141.485 140.5,131.5C 141.451,130.081 141.784,128.415 141.5,126.5C 136.833,126.5 132.167,126.5 127.5,126.5C 104.349,126.021 81.682,122.521 59.5,116C 55.8061,114.491 52.4728,112.491 49.5,110C 61.7017,76.8058 85.0351,55.8058 119.5,47C 153.791,39.5393 186.457,43.8726 217.5,60C 235.898,71.2333 248.565,87.0666 255.5,107.5C 253.393,110.061 250.726,111.894 247.5,113C 224.376,121.888 200.376,126.388 175.5,126.5 Z"/></g>
<g><path style="opacity:1" fill="#92adad" d="M 127.5,126.5 C 132.167,126.5 136.833,126.5 141.5,126.5C 141.784,128.415 141.451,130.081 140.5,131.5C 140.5,130.167 140.5,128.833 140.5,127.5C 135.968,127.818 131.634,127.485 127.5,126.5 Z"/></g>
<g><path style="opacity:1" fill="#85a3a3" d="M 175.5,126.5 C 172.038,127.482 168.371,127.815 164.5,127.5C 164.5,128.5 164.5,129.5 164.5,130.5C 163.566,129.432 163.232,128.099 163.5,126.5C 167.5,126.5 171.5,126.5 175.5,126.5 Z"/></g>
<g><path style="opacity:1" fill="#81a0a0" d="M 187.5,262.5 C 188.043,262.56 188.376,262.893 188.5,263.5C 176.333,263.833 164.167,264.167 152,264.5C 139.426,264.51 127.592,264.177 116.5,263.5C 140.339,263.831 164.006,263.498 187.5,262.5 Z"/></g>
</svg>
